<svg xmlns="http://www.w3.org/2000/svg" viewBox="0 0 24 24"><defs><style>.cls-1{fill:none;}.cls-2{fill:#fff;fill-rule:evenodd;}</style></defs><title>car</title><g id="Ebene_2" data-name="Ebene 2"><g id="Ebene_1-2" data-name="Ebene 1"><rect class="cls-1" width="24" height="24"/><path class="cls-2" d="M13.61,9l0-.38a.7.7,0,0,1,.7-.62h2.3a.7.7,0,0,1,.7.62l0,.38H18.7L17.53,5.67A1,1,0,0,0,16.59,5H7.41a1,1,0,0,0-.94.67h0L5.3,9H6.61l0-.38A.7.7,0,0,1,7.35,8h2.3a.7.7,0,0,1,.7.62l0,.38ZM6,17v1.34a.66.66,0,0,1-.67.66H2.67A.66.66,0,0,1,2,18.34V11.43a1.22,1.22,0,0,1,.43-.93l.74-.88-.1,0L1.42,9a.66.66,0,0,1-.37-.87l.15-.39a.64.64,0,0,1,.58-.4H4.57l.91-2.12A2,2,0,0,1,7.32,4h9.36a2,2,0,0,1,1.84,1.21l.91,2.12h2.79a.64.64,0,0,1,.58.4l.15.39a.66.66,0,0,1-.37.87l-1.65.59-.1,0,.74.88a1.22,1.22,0,0,1,.43.93v6.91a.66.66,0,0,1-.67.66H18.67a.66.66,0,0,1-.67-.66V17Zm.3-5.1-3-.4a.3.3,0,0,0-.3.31v.67a.88.88,0,0,0,.8.9l3,.12a.2.2,0,0,0,.2-.21v-.6A.8.8,0,0,0,6.3,11.9Zm11.4,0a.8.8,0,0,0-.7.79v.6a.2.2,0,0,0,.2.21l3-.12a.88.88,0,0,0,.8-.9v-.67a.3.3,0,0,0-.3-.31Zm-8,.1a1,1,0,0,0-1,.68l-.55,1.66a.45.45,0,0,0,0,.16.5.5,0,0,0,.5.5h6.62l.15,0a.49.49,0,0,0,.32-.63l-.55-1.66a1,1,0,0,0-1-.68ZM3.31,15a.33.33,0,0,0-.31.34v.32a.31.31,0,0,0,.38.33l1.37-.32A.34.34,0,0,0,4.69,15Zm17.38,0H19.31a.34.34,0,0,0-.06.67l1.37.32a.31.31,0,0,0,.38-.33v-.32A.33.33,0,0,0,20.69,15Z"/></g></g></svg>