<svg xmlns="http://www.w3.org/2000/svg" viewBox="0 0 60.06 90"><defs><style>.cls-1{fill:#fff;fill-rule:evenodd;}</style></defs><title>Element 1</title><g id="Ebene_2" data-name="Ebene 2"><g id="Ebene_1-2" data-name="Ebene 1"><path class="cls-1" d="M27.42,0a6.28,6.28,0,0,0-1.06.06A6.21,6.21,0,0,0,21,5.42a6.17,6.17,0,0,0-8.8,4.88,6.21,6.21,0,0,0-7.16,8.94A6.19,6.19,0,0,0,2.32,29.88a3.26,3.26,0,0,0,.47,6.26A3.31,3.31,0,0,0,2.49,38a3.18,3.18,0,0,0,.79,1.72A6.21,6.21,0,0,0,7,51.36a6.06,6.06,0,0,0,1.19-.28A7.63,7.63,0,0,0,20,55.81,3.25,3.25,0,0,0,24.83,57a34.87,34.87,0,0,0,1.06,5.13,30.79,30.79,0,0,1,1,8.59A17.78,17.78,0,0,1,24.64,79a14.14,14.14,0,0,1-8.76,6.6,15.15,15.15,0,0,1-1.66.29,11.49,11.49,0,0,0,3.9,1.37,14.6,14.6,0,0,0,7-.77,6.6,6.6,0,0,1,1.3-.36,1.88,1.88,0,0,1,.67,0,1.49,1.49,0,0,1,.62.26,2.12,2.12,0,0,1,.65,1c.22.57.35,1.18.6,1.74a2,2,0,0,0,.26.45,1.13,1.13,0,0,0,.4.32,1,1,0,0,0,.58,0,1.82,1.82,0,0,0,.56-.22A4.21,4.21,0,0,0,32.1,88.4,9.41,9.41,0,0,1,33,87.2a3.38,3.38,0,0,1,1.36-.81,6.16,6.16,0,0,1,1.53-.28,21.52,21.52,0,0,1,5.58.62,20.65,20.65,0,0,0,5.58.58,2.32,2.32,0,0,0,.46-.07.88.88,0,0,0,.41-.2.78.78,0,0,0,0-1.2,16.11,16.11,0,0,1-8.06-3.65A17.66,17.66,0,0,1,33.9,70.05a27.08,27.08,0,0,1,.38-6.16,13.58,13.58,0,0,1,.6-2.5,15.91,15.91,0,0,1,.71-1.58l0,0a2.82,2.82,0,0,0,.58,0,3.28,3.28,0,0,0,2.68-2.25,6.2,6.2,0,0,0,10-1.82A7.62,7.62,0,1,0,56,42.24a3.28,3.28,0,0,0,.45-2.14,3.21,3.21,0,0,0-.72-1.64,6.21,6.21,0,0,0-.51-9.77,6.2,6.2,0,0,0-3.84-11.58,6.13,6.13,0,0,0-1.4.36,2.56,2.56,0,0,0,0-.39,6.2,6.2,0,0,0-6.46-5.36,6.06,6.06,0,0,0,.14-2.36,6.21,6.21,0,0,0-7-5.32h0a6.17,6.17,0,0,0-3.32,1.55c0-.07,0-.14,0-.22A6.22,6.22,0,0,0,27.42,0Z"/></g></g></svg>